<svg xmlns="http://www.w3.org/2000/svg" width="297.527" height="49.601" viewBox="0 0 297.527 49.601"><g transform="translate(-558.507 -1683.342)"><rect width="49.599" height="49.598" transform="translate(806.435 1683.342)" fill="#d9ecf9"/><path d="M843.285,1732.943V1684.6H831.061l-11.878,5.874v11.806h2.764l4.907-2.627v33.288Z" fill="#609abb"/><rect width="49.598" height="49.598" transform="translate(657.719 1683.343)" fill="#609abb"/><path d="M699.8,1721.3H682.957l6.624-5.407c6.7-5.476,10.7-9.81,10.7-16.442,0-10.148-6.7-14.617-18.267-14.617a33.182,33.182,0,0,0-16.239,3.928v10.621h6.362a10.46,10.46,0,0,1,7.1-2.645c3.253,0,4.808,1.428,4.808,3.659,0,2.644-1.969,5.01-6.371,9.074l-12.91,11.635v11.837H699.8Z" fill="#d9ecf9"/><rect width="49.598" height="49.598" transform="translate(756.885 1683.342)" fill="#609abb"/><path d="M798.977,1721.3H782.138l6.624-5.407c6.7-5.476,10.7-9.81,10.7-16.442,0-10.148-6.7-14.617-18.266-14.617a33.186,33.186,0,0,0-16.24,3.928v10.621h6.363a10.458,10.458,0,0,1,7.1-2.645c3.253,0,4.807,1.428,4.807,3.659,0,2.644-1.968,5.01-6.37,9.074l-12.91,11.635v11.837h35.038Z" fill="#d9ecf9"/><path d="M707.317,1732.941h49.568v-49.6H707.317Zm14.373-36.875h20.6v24.15h-20.6Z" fill="#21435e"/><rect width="49.598" height="49.598" transform="translate(608.105 1683.343)" fill="#d9ecf9"/><path d="M623.688,1704.179l-.951,6.4h-2.854l.993-6.4h-5.625l-.992,6.4h-3.474v5.866h2.646l-.455,3.2h-3.515v5.866h2.647l-1.076,7.385h5.625l1.076-7.385h2.812l-1.076,7.385h5.625l1.076-7.385h3.474v-5.866h-2.606l.455-3.2h3.474v-5.866h-2.6l.951-6.4Zm-4.632,12.267h2.813l-.455,3.2H618.6Z" fill="#609abb"/><path d="M648.45,1683.342,636.777,1722.4l-3.312-11.812H624.13v1.9l6.8,20.41h11.6l15.168-47.653v-1.9Z" fill="#21435e"/><rect width="49.598" height="49.598" transform="translate(558.507 1683.342)" fill="#21435e"/><path d="M583.373,1698.759a9.443,9.443,0,1,0,9.444,9.444,9.46,9.46,0,0,0-9.444-9.444m-21.792,9.524v-.142c0-11.18,9.16-20.564,21.792-20.564,12.575,0,21.656,9.243,21.656,20.422v.142c0,11.182-9.164,20.565-21.8,20.565-12.568,0-21.65-9.223-21.65-20.423" fill="#fff"/><path d="M583.335,1713.953a5.722,5.722,0,1,0-5.712-5.73,5.724,5.724,0,0,0,5.712,5.73" fill="#00bfea"/><rect width="43.449" height="41.129" transform="translate(561.581 1687.577)" fill="none"/></g></svg>