<svg xmlns="http://www.w3.org/2000/svg" xmlns:xlink="http://www.w3.org/1999/xlink" width="242.857" height="83.767" viewBox="0 0 242.857 83.767"><defs><clipPath id="a"><path d="M1143.221,2572.2v31.41l-8.742,10.385,8.742,10.539v31.361h90.467V2572.2Z" fill="none"/></clipPath><linearGradient id="b" x1="-10.475" y1="36.757" x2="-10.465" y2="36.757" gradientUnits="objectBoundingBox"><stop offset="0" stop-color="#11c2f3"/><stop offset="0.036" stop-color="#11c2f3"/><stop offset="0.087" stop-color="#12b5eb"/><stop offset="0.223" stop-color="#1599da"/><stop offset="0.37" stop-color="#1784cd"/><stop offset="0.532" stop-color="#1874c4"/><stop offset="0.72" stop-color="#196bbe"/><stop offset="0.991" stop-color="#1a69bd"/><stop offset="1" stop-color="#1a69bd"/></linearGradient></defs><g transform="translate(-990.831 -2572.197)"><path d="M990.831,2572.2v83.767H1139.15v-27.886L1128.3,2614.15l10.846-14.068V2572.2Z" fill="#609abb"/><path d="M1143.22,2572.215v31.41l-8.741,10.386,8.741,10.539v31.362h90.467v-83.7Z" fill="none"/><g clip-path="url(#a)"><rect width="107.918" height="83.697" transform="translate(1130.417 2572.196)" fill="url(#b)"/></g><path d="M1188.844,2597.8a15.712,15.712,0,1,0,15.713,15.712,15.74,15.74,0,0,0-15.713-15.712m-36.257,15.846v-.236c0-18.6,15.24-34.214,36.257-34.214,20.922,0,36.03,15.378,36.03,33.977v.237c0,18.6-15.247,34.215-36.267,34.215-20.911,0-36.02-15.345-36.02-33.979" fill="#fff"/><path d="M1188.781,2623.086a9.519,9.519,0,1,0-9.5-9.535,9.525,9.525,0,0,0,9.5,9.535" fill="#00bee9"/><rect width="242.856" height="83.766" transform="translate(990.832 2572.198)" fill="none"/><path d="M1050.663,2617.216h5.2v-12.075c0-5.059-2.849-7.088-9.012-7.088a22.468,22.468,0,0,0-8.264,1.459v5.059h2.53a8.138,8.138,0,0,1,3.953-.962c2.1,0,2.886.57,2.886,2.1v.676a19.468,19.468,0,0,0-3.42-.249c-4.416,0-7.3,1.782-7.3,5.77,0,3.776,2.742,5.557,5.841,5.557a6.886,6.886,0,0,0,5.272-1.924,2.151,2.151,0,0,0,2.314,1.675m-4.345-4.061a1.563,1.563,0,0,1-1.709-1.746,1.674,1.674,0,0,1,1.887-1.922,10.525,10.525,0,0,1,1.461.142v2.957a3.045,3.045,0,0,1-1.639.569m19.592,4.061V2596.2c0-3.312-.465-3.918-2.708-3.918h-5.236v24.934Zm11.825.321c6.126,0,10.507-3.634,10.507-9.617,0-6.021-4.381-9.867-10.507-9.867s-10.509,3.846-10.509,9.867c0,5.983,4.381,9.617,10.509,9.617m0-4.845c-1.568,0-2.53-1.424-2.53-4.737s.962-4.7,2.53-4.7,2.493,1.389,2.493,4.7-.926,4.737-2.493,4.737m24.969-7.872h.748v-6.412a3.726,3.726,0,0,0-1.14-.142,5.846,5.846,0,0,0-5.058,3.028c-.285-2.458-.962-2.886-2.138-2.886h-5.627v18.808h7.943v-11.791a20.534,20.534,0,0,1,5.272-.6" fill="#fff"/><path d="M1015.389,2650.038h11.59l9.386-28.689v-2.159h-8.945l-5.509,19.126h-.132l-5.509-19.126H1006v2.159Zm35.431.484c8.99,0,15.777-5.6,15.777-15.819s-7.006-16-15.777-16c-8.726,0-15.732,5.773-15.732,16s6.742,15.819,15.732,15.819m0-7.094c-3.084,0-5.156-2.512-5.156-8.682s2.072-8.682,5.156-8.682,5.156,2.513,5.156,8.682-2.07,8.682-5.156,8.682m33.316,6.61v-23.709h7.315v-7.139h-25.119v7.139h7.315v23.709Z" fill="#fff"/><rect width="119.015" height="59.499" transform="translate(1004.125 2590.783)" fill="none"/><path d="M1019.176,2587.276l-1.006,6.826h-3.019l1.051-6.826h-5.951l-1.05,6.826h-3.675v6.257h2.8l-.482,3.413h-3.719v6.257h2.8l-1.137,7.876h5.95l1.138-7.876h2.975l-1.138,7.876h5.951l1.138-7.876h3.675v-6.257h-2.756l.48-3.413h3.676V2594.1h-2.757l1.007-6.826Zm-4.9,13.083h2.976l-.482,3.413h-2.975Z" fill="#fff"/><path d="M1109.068,2639.413h-2.574l1.014-.827c1.023-.838,1.632-1.5,1.632-2.512,0-1.551-1.023-2.232-2.79-2.232a5.069,5.069,0,0,0-2.48.6v1.622h.972a1.6,1.6,0,0,1,1.084-.4c.5,0,.734.217.734.558,0,.4-.3.765-.972,1.384l-1.973,1.779v1.808h5.353Zm4.092,1.777v-7.235h-1.829l-1.778.88v1.766h.415l.733-.392v4.981Z" fill="#fff"/><path d="M1107.939,2632.073h-1.948l.766-.626c.776-.635,1.238-1.136,1.238-1.9,0-1.174-.775-1.692-2.114-1.692a3.842,3.842,0,0,0-1.88.455v1.229h.738a1.207,1.207,0,0,1,.821-.306c.377,0,.556.165.556.423,0,.306-.226.58-.736,1.05l-1.495,1.346v1.37h4.054Zm2.977,1.432a2.839,2.839,0,1,0-2.569-2.826,2.522,2.522,0,0,0,2.569,2.826m0-1.236c-.486,0-.721-.431-.721-1.559s.235-1.535.721-1.535.712.416.712,1.535-.235,1.559-.712,1.559" fill="#fff"/><rect width="12.515" height="9.164" transform="translate(1103.715 2612.38) rotate(-66.001)" fill="#fff"/><path d="M1036.89,2575.47l-9.914,33.444-2.814-10.116h-7.929v1.629l5.781,17.478h9.853l12.883-40.807v-1.628Z" fill="#21435e"/><path d="M1093.549,2650.038h30.184V2619h-30.184Zm8.753-23.072h12.547v15.11H1102.3Z" fill="#21435e"/><path d="M1110.184,2611.916a.584.584,0,0,0,.06-.385l-1.425-.7a.729.729,0,0,0-.209.266c-.136.277-.114.577.5.874.639.313.934.233,1.075-.058m.164-4.822c-.1.2-.079.407.357.677l.384-.789c-.436-.187-.624-.128-.741.112m.509-4.089,3.806,1.856-.7,1.439-4.516-2.2.462-.949c.2-.406.349-.437.95-.144m-1.373,3.667a1.693,1.693,0,0,1,2.588-.838c.162.078.265.145.31.167l-1.016,2.083c.454.15.674-.007.869-.406a1.734,1.734,0,0,0,.2-.927l.224-.457.78.382a3.276,3.276,0,0,1-.4,1.671,1.814,1.814,0,0,1-2.66,1.034,1.88,1.88,0,0,1-.89-2.709m2.4,3.885-.5,1.032c-.078.161-.2.237-.486.178a1.356,1.356,0,0,1-.082,1.15c-.383.787-1.173,1.114-2.405.512-1.349-.658-1.429-1.623-1.123-2.248a1.188,1.188,0,0,1,.8-.7l-1.413-.69.459-.942c.2-.413.355-.433.948-.144Zm9.538-8.977-12.851-5.721-8.357,18.769,5.812,2.587h8.435Z" fill="#21435e"/><path d="M1042.524,2596.405h6.892v-2.035h-3.745v-1.59h2.483v-1.957h-2.483v-1.46h3.625v-2.086h-6.772Zm10.862,0v-7.693c0-1.213-.173-1.435-1.01-1.435h-1.951v9.128Z" fill="#fff"/><rect width="242.856" height="83.766" transform="translate(990.832 2572.198)" fill="none"/></g></svg>