<svg xmlns="http://www.w3.org/2000/svg" width="187.752" height="61.205" viewBox="0 0 187.752 61.205"><g transform="translate(-984.638 -1053.978)"><path d="M1006.276,1196.183h12.657V1192.4h-6.876v-2.958h4.56v-3.637h-4.56v-2.715h6.657v-3.879h-12.438Zm19.949,0v-14.3c0-2.254-.317-2.667-1.854-2.667h-3.584v16.971Z" transform="translate(-21.638 -81)" fill="#609abb"/><path d="M1094.813,1195.351h6.313v-14.569c0-6.1-3.459-8.553-10.938-8.553a27.4,27.4,0,0,0-10.031,1.761v6.1h3.07a9.926,9.926,0,0,1,4.8-1.161c2.551,0,3.5.688,3.5,2.537v.816a23.736,23.736,0,0,0-4.151-.3c-5.36,0-8.863,2.149-8.863,6.963,0,4.556,3.329,6.7,7.091,6.7a8.393,8.393,0,0,0,6.4-2.32,2.607,2.607,0,0,0,2.809,2.019m-5.274-4.9a1.893,1.893,0,0,1-2.075-2.106,2.027,2.027,0,0,1,2.291-2.321,12.832,12.832,0,0,1,1.773.172v3.567a3.694,3.694,0,0,1-1.989.688m23.779,4.9v-25.356c0-4-.563-4.729-3.286-4.729h-6.355v30.085Zm14.355.387c7.436,0,12.753-4.384,12.753-11.6,0-7.264-5.317-11.905-12.753-11.905s-12.755,4.641-12.755,11.905c0,7.22,5.318,11.6,12.755,11.6m0-5.845c-1.9,0-3.071-1.719-3.071-5.716s1.168-5.673,3.071-5.673,3.026,1.676,3.026,5.673-1.124,5.716-3.026,5.716m30.307-9.5h.908v-7.737a4.539,4.539,0,0,0-1.384-.172c-2.681,0-4.583,1.333-6.139,3.654-.346-2.966-1.168-3.482-2.595-3.482h-6.83v22.693h9.641v-14.226a25.028,25.028,0,0,1,6.4-.73" transform="translate(-21.638 -81)" fill="#609abb"/><path d="M1048.27,1160.764l-1.171,7.894h-3.512l1.222-7.894h-6.922l-1.222,7.894h-4.275v7.235h3.256l-.559,3.947h-4.327v7.235h3.259l-1.325,9.108h6.922l1.325-9.108h3.46l-1.323,9.108H1050l1.323-9.108h4.276v-7.235h-3.206l.559-3.947h4.276v-7.235h-3.207l1.171-7.894Zm-5.7,15.129h3.461l-.561,3.947h-3.461Z" transform="translate(-21.638 -81)" fill="#609abb"/><path d="M1078.3,1134.978l-14.384,48.237-4.082-14.59h-11.506v2.349l8.387,25.209h14.3l18.693-58.856v-2.349Z" transform="translate(-21.638 -81)" fill="#21435e"/><path d="M1173.285,1167.437l-9.623,18.774,14.79,7.492,9.623-18.774Z" transform="translate(-21.638 -81)" fill="#fff"/><path d="M1174.7,1186.679a.983.983,0,0,0,.1-.66l-2.45-1.189a1.208,1.208,0,0,0-.36.453c-.233.475-.194.985.859,1.5,1.1.532,1.606.395,1.848-.1m.284-8.246c-.168.342-.138.7.614,1.157l.658-1.346c-.75-.322-1.073-.218-1.272.189m.875-6.988,6.545,3.172-1.207,2.461-7.767-3.766.8-1.621c.341-.7.6-.746,1.633-.246m-2.361,6.268c.95-1.942,2.408-2.422,4.45-1.433.278.134.456.248.534.286l-1.748,3.562c.781.256,1.159-.012,1.494-.7a2.945,2.945,0,0,0,.338-1.583l.382-.784,1.344.652a5.611,5.611,0,0,1-.689,2.86c-1.072,2.183-2.723,2.666-4.575,1.767a3.207,3.207,0,0,1-1.53-4.632m4.127,6.643-.866,1.765c-.134.274-.349.4-.835.3a2.3,2.3,0,0,1-.142,1.965c-.658,1.346-2.017,1.9-4.136.875-2.318-1.124-2.456-2.775-1.932-3.845a2.049,2.049,0,0,1,1.374-1.2l-2.431-1.179.791-1.609c.347-.706.613-.742,1.631-.248Zm16.4-15.348-22.1-9.782-14.371,32.09,9.994,4.422h14.506Z" transform="translate(-21.638 -81)" fill="#21435e"/></g></svg>