<svg xmlns="http://www.w3.org/2000/svg" width="189.968" height="51.011" viewBox="0 0 189.968 51.011"><g transform="translate(-1006.276 -1197.507)"><path d="M1021.414,1247.74h18.692l15.139-45.994v-3.7h-14.428l-8.884,30.9h-.214l-8.884-30.9h-16.559v3.7Zm57.143.778c14.5,0,25.443-8.974,25.443-25.365s-11.3-25.646-25.443-25.646c-14.073,0-25.373,9.254-25.373,25.646s10.874,25.365,25.373,25.365m0-11.376c-4.975,0-8.316-4.028-8.316-13.917s3.341-13.92,8.316-13.92,8.316,4.027,8.316,13.92-3.341,13.917-8.316,13.917m53.73,10.6v-38.01h11.8v-11.681h-40.512v11.681h11.8v38.01Z" fill="#fff"/><path d="M1146.676,1247.845h49.568v-49.6h-49.568Zm14.372-36.874h20.6v24.15h-20.6Z" fill="#21435e"/><path d="M1172.261,1231.583h-4.4l1.731-1.413c1.749-1.433,2.791-2.562,2.791-4.293,0-2.649-1.75-3.813-4.769-3.813a8.668,8.668,0,0,0-4.238,1.024v2.772h1.661a2.734,2.734,0,0,1,1.854-.689c.847,0,1.253.372,1.253.954,0,.689-.512,1.307-1.661,2.365l-3.372,3.039v3.09h9.148Zm6.992,3.036v-12.362h-3.125l-3.039,1.5v3.02h.709l1.253-.671v8.512Z" fill="#fff"/><path d="M1170.333,1219.04H1167l1.311-1.069c1.325-1.084,2.113-1.941,2.113-3.252,0-2.007-1.324-2.89-3.612-2.89a6.563,6.563,0,0,0-3.21.776v2.1h1.258a2.073,2.073,0,0,1,1.4-.522c.642,0,.949.281.949.723,0,.522-.388.991-1.259,1.794l-2.554,2.3v2.341h6.93Zm5.085,2.448c2.488,0,4.389-1.671,4.389-4.83s-1.981-4.829-4.389-4.829-4.389,1.673-4.389,4.829,1.9,4.83,4.389,4.83m0-2.113c-.829,0-1.232-.737-1.232-2.662s.4-2.623,1.232-2.623,1.218.71,1.218,2.623-.4,2.662-1.218,2.662" fill="#fff"/></g></svg>