<?xml version="1.0" encoding="utf-8"?>
<!-- Generator: Adobe Illustrator 19.1.0, SVG Export Plug-In . SVG Version: 6.00 Build 0)  -->
<svg version="1.1" id="Layer_1" xmlns="http://www.w3.org/2000/svg" xmlns:xlink="http://www.w3.org/1999/xlink" x="0px" y="0px"
	 viewBox="0 0 138 130" style="enable-background:new 0 0 138 130;" xml:space="preserve">
<style type="text/css">
	.st0{fill:#FFFFFF;}
	.st1{fill:#14C2F3;}
</style>
<path class="st0" d="M5.7,64.9v-0.4C5.7,32.2,32.2,5,68.7,5c36.4,0,62.7,26.7,62.7,59.1v0.4c0,32.4-26.5,59.5-63.1,59.5
	C32,124,5.7,97.3,5.7,64.9 M68.7,37.4c-15.1,0-27.4,12.3-27.4,27.3C41.4,79.8,53.6,92,68.7,92c15.1,0,27.3-12.2,27.3-27.3
	C96.1,49.6,83.8,37.4,68.7,37.4"/>
<path class="st1" d="M68.6,81.3c9.1,0,16.5-7.4,16.5-16.6c0-9.1-7.4-16.5-16.5-16.5c-9.2,0-16.5,7.4-16.5,16.5
	C52.1,73.9,59.5,81.3,68.6,81.3"/>
</svg>
