<?xml version="1.0" encoding="utf-8"?>
<!-- Generator: Adobe Illustrator 19.1.0, SVG Export Plug-In . SVG Version: 6.00 Build 0)  -->
<svg version="1.1" id="Layer_1" xmlns="http://www.w3.org/2000/svg" xmlns:xlink="http://www.w3.org/1999/xlink" x="0px" y="0px"
	 viewBox="0 0 513 130" style="enable-background:new 0 0 513 130;" xml:space="preserve">
<style type="text/css">
	.st0{fill:#FFFFFF;}
	.st1{fill:#14C2F3;}
</style>
<g>
	<path class="st0" d="M181.7,35.5h22.9v9.2c4.2-5.4,10.3-10.6,19.5-10.6c13.9,0,22.2,9.2,22.2,24v42.7h-22.9V65.5
		c0-7.1-3.8-11-9.2-11c-5.5,0-9.7,3.9-9.7,11v35.4h-22.9V35.5z"/>
	<path class="st0" d="M250.2,68.5v-0.2c0-21.3,13.3-34.2,28.7-34.2c9.9,0,15.7,4.5,20.1,9.4V12.7h22.9v88.1H299v-8.7
		c-4.5,5.4-10.2,10.1-19.9,10.1C263.6,102.3,250.2,89.4,250.2,68.5 M299.3,68.3V68c0-8.6-5.9-14.7-13.2-14.7
		c-7.4,0-13.4,6-13.4,14.7v0.2c0,8.7,6,14.9,13.4,14.9C293.4,83.1,299.3,76.9,299.3,68.3"/>
</g>
<path class="st0" d="M328.6,12.7h23.9v16.9h-23.9V12.7z M329.1,35.6h22.9v65.3h-22.9V35.6z"/>
<path class="st0" d="M357.7,112.9l7.4-15.2c7,3.9,14,6.2,22.8,6.2c11.5,0,17.1-5.7,17.1-16.1v-2.5c-4.6,5.3-10.6,9.8-20.2,9.8
	c-16.1,0-29-11.6-29-30.3v-0.3c0-18.8,13.1-30.4,28.2-30.4c9.8,0,15.6,4,20.5,9.2v-7.7h22.9v49.6c0,11.9-2.6,20.3-8.4,26.1
	c-5.9,5.9-15.1,9.2-28.7,9.2C377.8,120.4,367.2,117.7,357.7,112.9 M405.1,64.8v-0.3c0-7.2-5.5-12.5-13.3-12.5
	c-7.8,0-13.4,5.4-13.4,12.7v0.2c0,7.2,5.5,12.6,13.4,12.6C399.5,77.4,405.1,72,405.1,64.8"/>
<path class="st0" d="M5.7,64.9v-0.4C5.7,32.2,32.2,5,68.7,5c36.4,0,62.7,26.7,62.7,59.1v0.4c0,32.4-26.5,59.5-63.1,59.5
	C32,124,5.7,97.3,5.7,64.9 M68.7,37.4c-15.1,0-27.4,12.3-27.4,27.3C41.4,79.8,53.6,92,68.7,92c15.1,0,27.3-12.2,27.3-27.3
	C96.1,49.6,83.8,37.4,68.7,37.4"/>
<path class="st1" d="M68.6,81.3c9.1,0,16.5-7.4,16.5-16.6c0-9.1-7.4-16.5-16.5-16.5c-9.2,0-16.5,7.4-16.5,16.5
	C52.1,73.9,59.5,81.3,68.6,81.3"/>
<path class="st0" d="M435.2,66.6v-0.2c0-18.6,15.2-34.2,36.2-34.2c20.9,0,36,15.4,36,33.9v0.2c0,18.6-15.2,34.2-36.2,34.2
	C450.2,100.5,435.2,85.2,435.2,66.6 M471.4,50.8c-8.7,0-15.7,7-15.7,15.7c0,8.7,7,15.7,15.7,15.7c8.7,0,15.7-7,15.7-15.7
	C487.1,57.8,480,50.8,471.4,50.8"/>
<path class="st1" d="M471.3,75.8c5.2,0,9.5-4.3,9.5-9.5c0-5.2-4.3-9.5-9.5-9.5c-5.3,0-9.5,4.3-9.5,9.5
	C461.8,71.5,466,75.8,471.3,75.8"/>
<rect x="152.2" y="12.7" class="st0" width="23.5" height="88.1"/>
<path class="st1" d="M279.5,29.1h13.1v-3.8H284v-2.6h7.8v-3.5H284v-2.5h8.6v-3.8h-13V29.1z M268.2,29.1h4.5V16.8h4.9v-3.9h-14.2v3.9
	h4.9V29.1z M252.2,20.7v-3.9h2.9c1.5,0,2.4,0.6,2.4,1.9v0c0,1.2-0.9,1.9-2.4,1.9H252.2z M247.7,29.1h4.5v-4.9h2l3.3,4.9h5.2
	l-3.9-5.6c2-0.9,3.3-2.5,3.3-5v0c0-1.6-0.5-2.8-1.4-3.8c-1.1-1.1-2.8-1.8-5.3-1.8h-7.6V29.1z M237.4,25.3c-2.4,0-4.1-2-4.1-4.4v0
	c0-2.3,1.6-4.3,4.1-4.3c2.5,0,4.2,2,4.2,4.4v0C241.5,23.4,239.8,25.3,237.4,25.3 M237.3,29.4c5,0,8.7-3.8,8.7-8.4v0
	c0-4.6-3.7-8.4-8.7-8.4c-5,0-8.7,3.8-8.7,8.4v0C228.6,25.7,232.3,29.4,237.3,29.4 M218.1,20.9v-4.3h2.1c1.6,0,2.6,0.7,2.6,2.1v0
	c0,1.3-1,2.1-2.6,2.1H218.1z M213.6,29.1h4.5v-4.6h2.2c4,0,7-2,7-5.8v0c0-3.6-2.6-5.7-6.7-5.7h-6.9V29.1z M198.2,29.1h13.1v-3.8
	h-8.7v-2.6h7.8v-3.5h-7.8v-2.5h8.6v-3.8h-13V29.1z M186.1,20.7v-3.9h2.9c1.5,0,2.4,0.6,2.4,1.9v0c0,1.2-0.9,1.9-2.4,1.9H186.1z
	 M181.6,29.1h4.5v-4.9h2l3.3,4.9h5.2l-3.9-5.6c2-0.9,3.3-2.5,3.3-5v0c0-1.6-0.5-2.8-1.4-3.8c-1.1-1.1-2.8-1.8-5.3-1.8h-7.6V29.1z"/>
</svg>
