<svg xmlns="http://www.w3.org/2000/svg" viewBox="0 0 200.1 200.1"><defs><style>.cls-1{fill:#2f71b7;}.cls-2{fill:#dcecf7;}</style></defs><title>Arte</title><g id="Layer_2" data-name="Layer 2"><g id="Layer_8" data-name="Layer 8"><path class="cls-1" d="M200.1,100.05a100.05,100.05,0,0,0-200.1,0V200.1H100.05A100.06,100.06,0,0,0,200.1,100.05Z"/><path class="cls-2" d="M153.75,79.51l-11,11a2.85,2.85,0,0,1-4,0l-26.4-26.39a2.86,2.86,0,0,1,0-4l11-11a11.44,11.44,0,0,1,16.15,0l14.29,14.29A11.41,11.41,0,0,1,153.75,79.51ZM102.92,69.45,40.47,131.9l-5,28.89A5.71,5.71,0,0,0,42,167.4l28.9-5.06,62.44-62.45a2.85,2.85,0,0,0,0-4L107,69.45a2.88,2.88,0,0,0-4.07,0Zm-38.07,57.1a3.31,3.31,0,0,1,0-4.71l36.62-36.62a3.33,3.33,0,0,1,4.71,4.71L69.56,126.55a3.33,3.33,0,0,1-4.71,0Zm-8.59,20H67.67v8.63l-15.33,2.69-7.4-7.39,2.69-15.34h8.63v11.41Z"/></g></g></svg>