<svg xmlns="http://www.w3.org/2000/svg" viewBox="0 0 200.1 200.1"><defs><style>.cls-1{fill:#2f71b7;}.cls-2{fill:#dcecf7;}</style></defs><title>Ciencia</title><g id="Layer_2" data-name="Layer 2"><g id="Layer_8" data-name="Layer 8"><g id="Layer_5" data-name="Layer 5"><path class="cls-1" d="M200.1,100.05a100.05,100.05,0,0,0-200.1,0V200.1H100.05A100.06,100.06,0,0,0,200.1,100.05Z"/><path class="cls-2" d="M98.19,98.73a9,9,0,1,0,9,9A9,9,0,0,0,98.19,98.73Zm59.88-26.84c-3-5.45-11.32-14.19-32.51-11.71-6-14.33-15.17-24.08-27.37-24.08S76.82,45.85,70.81,60.18C49.63,57.73,41.34,66.44,38.3,71.89c-4.58,8.21-4.2,20.45,7,35.79-11.22,15.34-11.6,27.58-7,35.79,8.14,14.64,28.42,12.2,32.51,11.71,6,14.33,15.17,24.08,27.38,24.08s21.36-9.75,27.37-24.08c4.09.49,24.37,2.93,32.51-11.71,4.58-8.21,4.2-20.45-7-35.79,11.22-15.34,11.6-27.57,7-35.79ZM53.27,134.52c-1.12-2,0-6.92,4.2-13.49,1.92,1.82,4,3.6,6.12,5.35.45,3.84,1.12,7.58,1.88,11.22C58.58,137.85,54.32,136.38,53.27,134.52ZM63.58,89c-2.17,1.75-4.2,3.53-6.12,5.35-4.23-6.57-5.31-11.46-4.2-13.49,1-1.71,4.58-3.22,10.6-3.22.49,0,1.08.11,1.6.11C64.67,81.47,64,85.21,63.58,89ZM98.19,54c2.66,0,6.22,3.77,9.47,10.41-3.14,1-6.29,2.24-9.47,3.6-3.18-1.36-6.33-2.55-9.47-3.6C92,57.77,95.53,54,98.19,54Zm0,107.37c-2.66,0-6.22-3.78-9.47-10.42,3.14-1,6.29-2.24,9.47-3.6,3.18,1.37,6.33,2.55,9.47,3.6C104.41,157.59,100.84,161.37,98.19,161.37Zm0-31.32a22.37,22.37,0,1,1,22.37-22.37A22.38,22.38,0,0,1,98.19,130.05Zm44.92,4.47c-1,1.85-5.31,3.32-12.2,3.08.77-3.63,1.43-7.37,1.89-11.22,2.17-1.75,4.19-3.52,6.11-5.34C143.15,127.61,144.23,132.5,143.11,134.52Zm-4.2-40.19C137,92.52,135,90.73,132.79,89c-.45-3.77-1.08-7.51-1.88-11.25.52,0,1.12-.11,1.61-.11,6,0,9.65,1.51,10.59,3.22C144.23,82.87,143.15,87.76,138.91,94.33Z"/></g></g></g></svg>