<svg xmlns="http://www.w3.org/2000/svg" viewBox="0 0 49.04 49.04"><defs><style>.cls-1{fill:#2f71b7;}.cls-2{fill:#dcecf7;}</style></defs><title>ENTRETENIMINETO</title><g id="Layer_2" data-name="Layer 2"><g id="MENU_1" data-name="MENU 1"><path class="cls-1" d="M49,24.52a24.52,24.52,0,0,0-49,0V49H24.52A24.52,24.52,0,0,0,49,24.52Z"/><path class="cls-2" d="M17,25.53a3.82,3.82,0,0,0-2.94,3.78,6.18,6.18,0,0,1,2.55-1.58l.39-2.2Zm-5.67,2.54L9.71,18.91a.27.27,0,0,1,0-.14,20,20,0,0,1,9.64-2.5h.25A4.94,4.94,0,0,1,22.25,15a26,26,0,0,1,2.92-.27A3.27,3.27,0,0,0,23,13.31a22.71,22.71,0,0,0-3.67-.3A23.13,23.13,0,0,0,8.14,15.93,3.34,3.34,0,0,0,6.5,19.47l1.62,9.17c.72,4.1,7,7.25,10.43,7.25.18,0,.35,0,.51,0a13.64,13.64,0,0,1-2-3.45c-2.43-.67-5.42-2.64-5.72-4.33Zm5-7a1.92,1.92,0,0,0-.21-.58,3.35,3.35,0,0,1-3.81.67,1.84,1.84,0,0,0,0,.62,2,2,0,0,0,4-.71Zm21.1-1.87a23.13,23.13,0,0,0-14.9-2.62,3.4,3.4,0,0,0-2.76,2.78L18.13,28.5c-.78,4.44,4.87,10,8.08,10.58s10.44-2.74,11.22-7.19l1.62-9.16a3.36,3.36,0,0,0-1.64-3.55ZM23.47,24.12a2,2,0,0,1,4,.71,2.23,2.23,0,0,1-.21.58,3.21,3.21,0,0,0-1.8-.93,3.27,3.27,0,0,0-2,.26,2.15,2.15,0,0,1,0-.62Zm3.59,10.15a5.44,5.44,0,0,1-4.54-5.76,8.42,8.42,0,0,0,5.08,2.74,8.38,8.38,0,0,0,5.71-.85,5.46,5.46,0,0,1-6.25,3.87Zm6.65-7.73a3.4,3.4,0,0,0-3.81-.67,1.78,1.78,0,0,1,0-.61,2,2,0,1,1,4,.7,1.92,1.92,0,0,1-.21.58Z"/></g></g></svg>