<svg xmlns="http://www.w3.org/2000/svg" viewBox="0 0 36.78 36.12"><defs><style>.cls-1{fill:#d9f0f6;}.cls-2{fill:#14c2f2;}</style></defs><title>LogoFilosofiaFinanciera</title><g id="Layer_2" data-name="Layer 2"><g id="MENU_1" data-name="MENU 1"><circle class="cls-1" cx="18.39" cy="18.06" r="15.21"/><path class="cls-2" d="M18.72,0A18.06,18.06,0,0,0,3.56,27.87L0,34.78l7-3A18.05,18.05,0,1,0,18.72,0Zm2.09,26.3v1.53a1.4,1.4,0,0,1-1.4,1.39H18a1.4,1.4,0,0,1-1.4-1.39V26.28a6.39,6.39,0,0,1-2.77-1,1,1,0,0,1-.13-1.6l1.52-1.53A1.09,1.09,0,0,1,16.48,22a2.22,2.22,0,0,0,.89.19h2.86a.74.74,0,0,0,.73-.74.73.73,0,0,0-.53-.7l-4.37-1.25a5.09,5.09,0,0,1-3.74-4.16,4.92,4.92,0,0,1,4.3-5.5V8.29A1.4,1.4,0,0,1,18,6.9h1.39a1.4,1.4,0,0,1,1.4,1.39V9.84a6.34,6.34,0,0,1,2.77,1,1,1,0,0,1,.14,1.6L22.19,14a1.08,1.08,0,0,1-1.23.18,2.15,2.15,0,0,0-.9-.2H17.2a.74.74,0,0,0-.73.74.75.75,0,0,0,.53.71l4.37,1.24a5.12,5.12,0,0,1,3.74,4.16A4.91,4.91,0,0,1,20.81,26.3Z"/></g></g></svg>