<svg xmlns="http://www.w3.org/2000/svg" viewBox="0 0 49.04 49.04"><defs><style>.cls-1{fill:#2f71b7;}.cls-2{fill:#dcecf7;}</style></defs><title>Innovación</title><g id="Layer_2" data-name="Layer 2"><g id="MENU_1" data-name="MENU 1"><path class="cls-1" d="M49,24.52a24.52,24.52,0,0,0-49,0V49H24.52A24.52,24.52,0,0,0,49,24.52Z"/><path class="cls-2" d="M21,37.83a1.79,1.79,0,0,0,.3,1l1,1.43a1.78,1.78,0,0,0,1.48.79h3.42a1.78,1.78,0,0,0,1.48-.79l.95-1.43a1.72,1.72,0,0,0,.3-1V35.7H21ZM15.68,22.37A9.67,9.67,0,0,0,18.1,28.8,16.07,16.07,0,0,1,21,33.88v0h8.9v0A16.05,16.05,0,0,1,32.8,28.8a9.67,9.67,0,0,0,2.42-6.43,9.77,9.77,0,1,0-19.54,0Zm9.77-4.44A4.45,4.45,0,0,0,21,22.37a.89.89,0,0,1-1.78,0,6.22,6.22,0,0,1,6.22-6.21.89.89,0,1,1,0,1.77Z"/></g></g></svg>