<svg xmlns="http://www.w3.org/2000/svg" viewBox="0 0 49.04 49.04"><defs><style>.cls-1{fill:#2f71b7;}.cls-2{fill:#dcecf7;}</style></defs><title>Libros</title><g id="Layer_2" data-name="Layer 2"><g id="MENU_1" data-name="MENU 1"><path class="cls-1" d="M49,24.52a24.52,24.52,0,0,0-49,0V49H24.52A24.52,24.52,0,0,0,49,24.52Z"/><path class="cls-2" d="M37.57,30.58V11a1.39,1.39,0,0,0-1.39-1.4H17.06a5.6,5.6,0,0,0-5.6,5.59V33.84a5.6,5.6,0,0,0,5.6,5.6H36.18A1.39,1.39,0,0,0,37.57,38v-.93A1.4,1.4,0,0,0,37.06,36a12.77,12.77,0,0,1,0-4.36,1.38,1.38,0,0,0,.51-1.08ZM18.92,17.41a.35.35,0,0,1,.35-.35H31.63a.35.35,0,0,1,.35.35v1.16a.35.35,0,0,1-.35.35H19.27a.35.35,0,0,1-.35-.35Zm0,3.73a.35.35,0,0,1,.35-.35H31.63a.35.35,0,0,1,.35.35V22.3a.35.35,0,0,1-.35.35H19.27a.35.35,0,0,1-.35-.35ZM33.69,35.71H17.06a1.87,1.87,0,1,1,0-3.73H33.69A21.12,21.12,0,0,0,33.69,35.71Z"/></g></g></svg>