<svg xmlns="http://www.w3.org/2000/svg" viewBox="0 0 200 200"><defs><style>.cls-1{fill:#2f71b7;}.cls-2{fill:#dcecf7;}</style></defs><title>Literatura</title><g id="Layer_2" data-name="Layer 2"><g id="Layer_7" data-name="Layer 7"><path class="cls-1" d="M200,100A100,100,0,0,0,0,100V200H100A100,100,0,0,0,200,100Z"/><path class="cls-2" d="M153.24,124.72V44.86a5.69,5.69,0,0,0-5.7-5.71h-78A22.82,22.82,0,0,0,46.76,62V138a22.82,22.82,0,0,0,22.81,22.82h78a5.69,5.69,0,0,0,5.7-5.71v-3.8a5.76,5.76,0,0,0-2.11-4.44c-1-3.66-1-14.1,0-17.76a5.67,5.67,0,0,0,2.11-4.42ZM77.18,71a1.44,1.44,0,0,1,1.43-1.43H129A1.43,1.43,0,0,1,130.42,71v4.75A1.43,1.43,0,0,1,129,77.18H78.61a1.44,1.44,0,0,1-1.43-1.43Zm0,15.21a1.44,1.44,0,0,1,1.43-1.43H129a1.43,1.43,0,0,1,1.42,1.43V91A1.43,1.43,0,0,1,129,92.39H78.61A1.43,1.43,0,0,1,77.18,91Zm60.23,59.43H69.57a7.61,7.61,0,0,1,0-15.21h67.84A85.85,85.85,0,0,0,137.41,145.64Z"/></g></g></svg>