<?xml version="1.0" encoding="utf-8"?>
<!-- Generator: Adobe Illustrator 15.1.0, SVG Export Plug-In  -->
<!DOCTYPE svg PUBLIC "-//W3C//DTD SVG 1.1//EN" "http://www.w3.org/Graphics/SVG/1.1/DTD/svg11.dtd" [
	<!ENTITY ns_flows "http://ns.adobe.com/Flows/1.0/">
]>
<svg version="1.1"
	 xmlns="http://www.w3.org/2000/svg" xmlns:xlink="http://www.w3.org/1999/xlink" xmlns:a="http://ns.adobe.com/AdobeSVGViewerExtensions/3.0/"
	 x="0px" y="0px" width="1311px" height="493px" viewBox="0 0 1311 493" overflow="visible" enable-background="new 0 0 1311 493"
	 xml:space="preserve">
<defs>
</defs>
<g>
	<defs>
		<rect id="SVGID_2_" width="1310.62" height="493.316"/>
	</defs>
	<clipPath id="SVGID_3_">
		<use xlink:href="#SVGID_2_"  overflow="visible"/>
	</clipPath>
	<path clip-path="url(#SVGID_3_)" fill="#FFFFFF" d="M581.119,184.208h48.657v19.48c8.959-11.503,21.779-22.544,41.469-22.544
		c29.46,0,47.108,19.492,47.108,51.005v90.626h-48.589v-75.049c0-15.08-7.976-23.258-19.492-23.258
		c-11.739,0-20.497,8.178-20.497,23.258v75.049h-48.657V184.208z"/>
	<path clip-path="url(#SVGID_3_)" fill="#FFFFFF" d="M830.598,253.636v-0.509c0-18.203-12.515-31.218-28.089-31.218
		c-15.664,0-28.457,12.811-28.457,31.218v0.509c0,18.431,12.793,31.514,28.457,31.514
		C818.083,285.15,830.598,272.067,830.598,253.636 M726.38,254.133v-0.497c0-45.104,28.245-72.491,60.968-72.491
		c20.991,0,33.288,9.536,42.546,19.992v-65.304h48.646v186.94h-48.646v-18.413c-9.468,11.512-21.555,21.486-42.265,21.486
		C754.832,325.847,726.38,298.446,726.38,254.133"/>
</g>
<path fill="#FFFFFF" d="M893.911,184.283h48.653v138.49h-48.653V184.283z M892.845,135.833h50.726v35.849h-50.726V135.833z"/>
<g>
	<defs>
		<rect id="SVGID_1_" width="1310.62" height="493.316"/>
	</defs>
	<clipPath id="SVGID_4_">
		<use xlink:href="#SVGID_1_"  overflow="visible"/>
	</clipPath>
	<path clip-path="url(#SVGID_4_)" fill="#FFFFFF" d="M1054.974,246.245v-0.573c0-15.296-11.745-26.609-28.179-26.609
		c-16.65,0-28.391,11.527-28.391,26.887v0.511c0,15.366,11.74,26.663,28.391,26.663
		C1043.229,273.124,1054.974,261.603,1054.974,246.245 M954.588,348.386l15.654-32.282c14.784,8.167,29.664,13.076,48.365,13.076
		c24.331,0,36.366-12.022,36.366-34.076v-5.407c-9.758,11.318-22.554,20.787-42.782,20.787c-34.062,0-61.443-24.55-61.443-64.239
		v-0.573c0-39.905,27.887-64.526,59.891-64.526c20.785,0,33.075,8.466,43.54,19.49v-16.429h48.653v105.291
		c0,25.32-5.619,43.032-17.92,55.327c-12.53,12.533-32.02,19.424-60.895,19.424C997.062,364.249,974.585,358.626,954.588,348.386"/>
	<path clip-path="url(#SVGID_4_)" fill="#FFFFFF" d="M262.752,157.591c-53.738,0-97.328,43.591-97.328,97.139
		c0,53.755,43.59,97.129,97.328,97.129c53.564,0,97.14-43.374,97.14-97.129C359.892,201.183,316.316,157.591,262.752,157.591
		 M38.611,255.555v-1.459c0-114.994,94.218-211.513,224.141-211.513c129.343,0,222.747,95.068,222.747,210.05v1.463
		c0,115.009-94.261,211.521-224.209,211.521C132.019,465.618,38.611,370.754,38.611,255.555"/>
	<path clip-path="url(#SVGID_4_)" fill="#0CBDE4" d="M262.363,313.88c32.337,0,58.741-26.344,58.741-58.944
		c0-32.391-26.404-58.752-58.741-58.752c-32.593,0-58.75,26.361-58.75,58.752C203.613,287.537,229.77,313.88,262.363,313.88"/>
	<path clip-path="url(#SVGID_4_)" fill="#FFFFFF" d="M1195.67,216.521c-18.414,0-33.347,14.943-33.347,33.288
		c0,18.427,14.933,33.296,33.347,33.296c18.362,0,33.291-14.869,33.291-33.296C1228.961,231.464,1214.032,216.521,1195.67,216.521
		 M1118.857,250.083v-0.484c0-39.408,32.291-72.495,76.812-72.495c44.329,0,76.339,32.584,76.339,71.99v0.505
		c0,39.411-32.305,72.494-76.833,72.494C1150.867,322.093,1118.857,289.58,1118.857,250.083"/>
	<path clip-path="url(#SVGID_4_)" fill="#0CBDE4" d="M1195.539,269.638c11.087,0,20.134-9.032,20.134-20.208
		c0-11.105-9.047-20.137-20.134-20.137c-11.172,0-20.131,9.031-20.131,20.137C1175.408,260.606,1184.367,269.638,1195.539,269.638"
		/>
	<rect x="518.525" y="135.788" clip-path="url(#SVGID_4_)" fill="#FFFFFF" width="49.927" height="186.938"/>
</g>
</svg>
