<svg xmlns="http://www.w3.org/2000/svg" viewBox="0 0 200 200"><defs><style>.cls-1{fill:#2f71b7;}.cls-2{fill:#dcecf7;}</style></defs><title>Musica</title><g id="Layer_2" data-name="Layer 2"><g id="Layer_2-2" data-name="Layer 2"><path class="cls-1" d="M200,100A100,100,0,0,0,0,100V200H100A100,100,0,0,0,200,100Z"/><path class="cls-2" d="M100,47.42a60.81,60.81,0,0,0-60.85,60.85v11.4a7.63,7.63,0,0,0,4.2,6.81l3.42,1.71A26.62,26.62,0,0,0,73.38,153.9h5.7a5.71,5.71,0,0,0,5.71-5.71V106.36a5.71,5.71,0,0,0-5.71-5.7h-5.7a26.53,26.53,0,0,0-19,8v-.39a45.64,45.64,0,1,1,91.28,0v.39a26.55,26.55,0,0,0-19-8h-5.7a5.71,5.71,0,0,0-5.71,5.7v41.83a5.71,5.71,0,0,0,5.71,5.71h5.7a26.62,26.62,0,0,0,26.61-25.71l3.42-1.71a7.63,7.63,0,0,0,4.2-6.81v-11.4A60.81,60.81,0,0,0,100,47.42Z"/></g></g></svg>