<svg xmlns="http://www.w3.org/2000/svg" viewBox="0 0 21.94 37.82"><defs><style>.cls-1{fill:#2f71b7;}.cls-2{fill:#fff;}.cls-3{fill:#14b4e4;}</style></defs><title>Premium</title><g id="Layer_2" data-name="Layer 2"><g id="MENU_1" data-name="MENU 1"><path class="cls-1" d="M21.94,10.61v-.07A10.59,10.59,0,0,0,11,0,10.68,10.68,0,0,0,0,10.61v.07a10.36,10.36,0,0,0,3.75,8L1.92,37.82,11,33.38l9.06,4.44L18.21,18.63A10.47,10.47,0,0,0,21.94,10.61Z"/><path class="cls-2" d="M11,6.68a4,4,0,1,0,3.86,4,3.92,3.92,0,0,0-3.86-4m-8.92,4v-.06A8.66,8.66,0,0,1,11,2a8.57,8.57,0,0,1,8.86,8.54v.06a8.66,8.66,0,0,1-8.92,8.6,8.57,8.57,0,0,1-8.86-8.54"/><path class="cls-3" d="M11,13a2.4,2.4,0,1,0-2.34-2.4A2.37,2.37,0,0,0,11,13"/></g></g></svg>