<?xml version="1.0" encoding="utf-8"?>
<!-- Generator: Adobe Illustrator 22.0.0, SVG Export Plug-In . SVG Version: 6.00 Build 0)  -->
<svg version="1.1" id="Layer_1" xmlns="http://www.w3.org/2000/svg" xmlns:xlink="http://www.w3.org/1999/xlink" x="0px" y="0px"
	 viewBox="0 0 30 30" style="enable-background:new 0 0 30 30;" xml:space="preserve">
<style type="text/css">
	.st0{fill:#FFFFFF;}
	.st1{fill:#06BCE3;}
</style>
<g>
	<path class="st0" d="M21.4,15.1c0-3.5-2.9-6.4-6.5-6.4c-3.6,0-6.5,2.9-6.5,6.4c0,3.6,2.9,6.4,6.5,6.4
		C18.5,21.5,21.4,18.6,21.4,15.1 M29.8,15L29.8,15c0,7.7-6.2,14-14.8,14C6.4,29,0.2,22.6,0.2,15v-0.1C0.2,7.3,6.4,1,15,1
		C23.6,1,29.8,7.4,29.8,15"/>
	<path class="st1" d="M15,18.9c-2.1,0-3.9-1.8-3.9-3.9c0-2.2,1.8-3.9,3.9-3.9c2.2,0,3.9,1.8,3.9,3.9C18.9,17.2,17.1,18.9,15,18.9"/>
</g>
</svg>
