<svg xmlns="http://www.w3.org/2000/svg" viewBox="0 0 170 51.8"><defs><style>.cls-1{fill:#fff;}.cls-2{fill:#14c2f3;}</style></defs><title>Logo170Blanco</title><g id="Layer_2" data-name="Layer 2"><g id="Layer_1-2" data-name="Layer 1"><path class="cls-1" d="M67.3,17.8h7.2v2.9a7.77,7.77,0,0,1,6.2-3.4c4.4,0,7,2.9,7,7.5V38.3H80.5V27.2c0-2.2-1.2-3.5-2.9-3.5s-3,1.2-3,3.5V38.3H67.4V17.8Z"/><path class="cls-1" d="M104.4,28.1h0c0-2.8-1.9-4.7-4.2-4.7A4.34,4.34,0,0,0,95.9,28v.1a4.43,4.43,0,0,0,4.3,4.7c2.3.1,4.2-2,4.2-4.7m-15.5.2h0c0-6.7,4.2-10.8,9.1-10.8a8.38,8.38,0,0,1,6.3,2.9V10.7h7.2V38.3h-7.2V35.6A7.6,7.6,0,0,1,98,38.7c-4.8.2-9.1-3.9-9.1-10.4"/><path class="cls-1" d="M113.7,17.8h7.2V38.4h-7.2Zm-.1-7.2h7.5v5.3h-7.5Z"/><path class="cls-1" d="M137.7,27h0a3.94,3.94,0,0,0-4.2-4,4,4,0,0,0-4.3,4v.1a4,4,0,0,0,4.3,3.9,3.89,3.89,0,0,0,4.2-4M122.8,42.2l2.4-4.8a14.31,14.31,0,0,0,7.2,1.9c3.6,0,5.4-1.8,5.4-5.1v-.8a8,8,0,0,1-6.4,3c-5.1,0-9.1-3.6-9.1-9.5v-.1c0-6,4.2-9.5,8.9-9.5a8.33,8.33,0,0,1,6.5,2.9V17.7h7.2V33.3c0,3.7-.8,6.4-2.7,8.2s-4.7,2.9-9,2.9a20,20,0,0,1-10.4-2.2"/><path class="cls-1" d="M27.3,14.1A11.8,11.8,0,1,0,39.1,25.9,11.7,11.7,0,0,0,27.3,14.1M0,26.1v-.2C0,11.9,11.5,0,27.3,0S54.4,11.6,54.4,25.7v.2c0,14-11.5,25.9-27.3,25.9S0,40.1,0,26.1"/><path class="cls-2" d="M27.3,33.2A7.2,7.2,0,1,0,20.1,26a7.17,7.17,0,0,0,7.2,7.2"/><path class="cls-1" d="M158.5,22.6a4.9,4.9,0,1,0,4.9,4.9,4.91,4.91,0,0,0-4.9-4.9m-11.3,5h0c0-6,4.8-10.8,11.5-10.8S170,21.6,170,27.5v.1c0,5.8-4.8,10.8-11.5,10.8s-11.3-4.9-11.3-10.8"/><path class="cls-2" d="M158.5,30.5a3,3,0,1,0-3-3,3,3,0,0,0,3,3"/><rect class="cls-1" x="58" y="10.6" width="7.4" height="27.7"/><path class="cls-2" d="M98.8,15.8H103V14.6h-2.8v-.8h2.5V12.7h-2.5v-.8H103V10.7H98.8Zm-3.7,0h1.4V11.9h1.6V10.6H93.5v1.3h1.6ZM90,13.1V11.9h.9c.5,0,.8.2.8.6h0c0,.4-.3.6-.8.6Zm-1.5,2.7H90V14.2h.6l1,1.6h1.7L92.1,14a1.76,1.76,0,0,0,1.1-1.6h0a1.66,1.66,0,0,0-.5-1.2,2.06,2.06,0,0,0-1.7-.6H88.5Zm-3.3-1.2a1.34,1.34,0,0,1-1.3-1.4h0a1.29,1.29,0,0,1,1.3-1.4,1.34,1.34,0,0,1,1.3,1.4h0a1.24,1.24,0,0,1-1.3,1.4m0,1.3A2.71,2.71,0,0,0,88,13.2h0a2.8,2.8,0,0,0-5.6,0h0a2.71,2.71,0,0,0,2.8,2.7m-6.1-2.7V11.8h.7c.5,0,.8.2.8.7h0a.71.71,0,0,1-.8.7Zm-1.5,2.6H79V14.3h.7c1.3,0,2.2-.6,2.2-1.9h0c0-1.1-.8-1.8-2.2-1.8H77.5v5.2Zm-4.9,0h4.2V14.6H74.1v-.8h2.5V12.7H74.1v-.8h2.8V10.7H72.7Zm-3.9-2.7V11.9h.9c.5,0,.8.2.8.6h0c0,.4-.3.6-.8.6Zm-1.5,2.7h1.4V14.2h.6l1,1.6H72L70.9,14A1.76,1.76,0,0,0,72,12.4h0a1.66,1.66,0,0,0-.5-1.2,2.06,2.06,0,0,0-1.7-.6H67.3Z"/></g></g></svg>