<svg xmlns="http://www.w3.org/2000/svg" viewBox="0 0 250 76.18"><defs><style>.cls-1{fill:#fff;}.cls-2{fill:#14c2f3;}</style></defs><title>Logo250Blanco</title><g id="Layer_2" data-name="Layer 2"><g id="Layer_1-2" data-name="Layer 1"><path class="cls-1" d="M99,26.18h10.59v4.26c1.91-2.5,4.85-5,9.12-5,6.47,0,10.29,4.27,10.29,11V56.32H118.38V40c0-3.24-1.76-5.15-4.26-5.15-2.65,0-4.41,1.77-4.41,5.15V56.32H99.12V26.18Z"/><path class="cls-1" d="M153.53,41.32h0c0-4.11-2.79-6.91-6.18-6.91S141,37.21,141,41.18v.14c0,4,2.79,6.92,6.32,6.92s6.18-3,6.18-6.92m-22.79.3h0c0-9.86,6.17-15.88,13.38-15.88,4.56,0,7.2,2.2,9.26,4.26V15.74H164V56.32H153.38v-4c-2.2,2.5-4.56,4.56-9.26,4.56-7.06.3-13.38-5.73-13.38-15.29"/><path class="cls-1" d="M167.21,26.18h10.58V56.47H167.21Zm-.15-10.59h11v7.79h-11Z"/><path class="cls-1" d="M202.5,39.71h0c0-3.53-2.65-5.89-6.18-5.89S190,36.32,190,39.71v.14c0,3.24,2.65,5.74,6.32,5.74s6.18-2.35,6.18-5.88M180.59,62.06,184.12,55a21.07,21.07,0,0,0,10.59,2.79c5.29,0,7.94-2.64,7.94-7.5V49.12a11.81,11.81,0,0,1-9.41,4.41c-7.5,0-13.39-5.29-13.39-14v-.15c0-8.82,6.18-14,13.09-14a12.25,12.25,0,0,1,9.56,4.27V26h10.59V49c0,5.44-1.18,9.41-4,12.06s-6.91,4.26-13.24,4.26c-6,.15-11-.88-15.29-3.23"/><path class="cls-1" d="M40.15,20.74A17.35,17.35,0,1,0,57.5,38.09,17.19,17.19,0,0,0,40.15,20.74M0,38.38v-.29C0,17.5,16.91,0,40.15,0S80,17.06,80,37.79v.3c0,20.59-16.91,38.09-40.15,38.09C16.76,76,0,59,0,38.38"/><path class="cls-2" d="M40.15,48.82A10.59,10.59,0,1,0,29.56,38.24,10.54,10.54,0,0,0,40.15,48.82"/><path class="cls-1" d="M233.09,33.24a7.21,7.21,0,1,0,7.2,7.2,7.22,7.22,0,0,0-7.2-7.2m-16.62,7.35h0c0-8.83,7.06-15.88,16.91-15.88S250,31.76,250,40.44v.15c0,8.53-7.06,15.88-16.91,15.88s-16.62-7.21-16.62-15.88"/><path class="cls-2" d="M233.09,44.85a4.41,4.41,0,1,0-4.41-4.41,4.42,4.42,0,0,0,4.41,4.41"/><rect class="cls-1" x="85.29" y="15.59" width="10.88" height="40.74"/><path class="cls-2" d="M145.29,23.24h6.18V21.47h-4.12V20.29H151V18.68h-3.68V17.5h4.12V15.74h-6.18Zm-5.44,0h2.06V17.5h2.35V15.59H137.5V17.5h2.35Zm-7.5-4V17.5h1.33c.73,0,1.17.29,1.17.88h0c0,.59-.44.88-1.17.88Zm-2.2,4h2.2V20.88h.89l1.47,2.36h2.5l-1.77-2.65a2.6,2.6,0,0,0,1.62-2.35h0a2.45,2.45,0,0,0-.74-1.77,3,3,0,0,0-2.5-.88h-3.67Zm-4.86-1.77a2,2,0,0,1-1.91-2.06h0a1.9,1.9,0,0,1,1.91-2.06,2,2,0,0,1,1.92,2.06h0a1.83,1.83,0,0,1-1.92,2.06m0,1.91a4,4,0,0,0,4.12-4h0a4.12,4.12,0,0,0-8.23,0h0a4,4,0,0,0,4.11,4m-9-4V17.35h1c.74,0,1.18.3,1.18,1h0a1,1,0,0,1-1.18,1Zm-2.2,3.83h2.06V21h1c1.91,0,3.23-.88,3.23-2.79h0c0-1.62-1.18-2.65-3.23-2.65H114v7.65Zm-7.21,0h6.18V21.47H109V20.29h3.68V18.68H109V17.5h4.12V15.74h-6.18Zm-5.73-4V17.5h1.32c.74,0,1.18.29,1.18.88h0c0,.59-.44.88-1.18.88Zm-2.21,4H101V20.88h.88l1.47,2.36h2.5l-1.62-2.65a2.58,2.58,0,0,0,1.62-2.35h0a2.44,2.44,0,0,0-.73-1.77,3,3,0,0,0-2.5-.88H99Z"/></g></g></svg>