<svg xmlns="http://www.w3.org/2000/svg" viewBox="0 0 49.04 49.04"><defs><style>.cls-1{fill:#2f71b7;}.cls-2{fill:#dcecf7;}</style></defs><title>Salud</title><g id="Layer_2" data-name="Layer 2"><g id="MENU_1" data-name="MENU 1"><path class="cls-1" d="M49,24.52a24.52,24.52,0,0,0-49,0V49H24.52A24.52,24.52,0,0,0,49,24.52Z"/><path class="cls-2" d="M36.54,17.32a8,8,0,0,0-10.87.8L24.52,19.3l-1.15-1.18a8,8,0,0,0-10.87-.8,8.37,8.37,0,0,0-.58,12.12L23.2,41.08a1.81,1.81,0,0,0,2.64,0L37.11,29.44a8.36,8.36,0,0,0-.57-12.12Z"/></g></g></svg>