<svg xmlns="http://www.w3.org/2000/svg" viewBox="0 0 49.04 49.04"><defs><style>.cls-1{fill:#2f71b7;}.cls-2{fill:#dcfcff;}</style></defs><title>SUSTENTABILIDAD</title><g id="Layer_2" data-name="Layer 2"><g id="MENU_1" data-name="MENU 1"><path class="cls-1" d="M49,24.52a24.52,24.52,0,0,0-49,0V49H24.52A24.52,24.52,0,0,0,49,24.52Z"/><path class="cls-2" d="M12.87,17.84H9.14A13.06,13.06,0,0,0,22.2,30.89v8.39a.94.94,0,0,0,.93.94H25a.94.94,0,0,0,.93-.94V30.89A13.06,13.06,0,0,0,12.87,17.84Zm22.38-3.73a13,13,0,0,0-11.4,6.71,15,15,0,0,1,3.44,6.27A13.06,13.06,0,0,0,39,14.11Z"/></g></g></svg>