<svg xmlns="http://www.w3.org/2000/svg" viewBox="0 0 200.1 200.1"><defs><style>.cls-1{fill:#2f71b7;}.cls-2{fill:#dcecf7;}</style></defs><title>Tecnologia</title><g id="Layer_2" data-name="Layer 2"><g id="Layer_3" data-name="Layer 3"><path class="cls-1" d="M200.1,100.05a100.05,100.05,0,0,0-200.1,0V200.1H100.05A100.06,100.06,0,0,0,200.1,100.05Z"/><path class="cls-2" d="M85.74,154.36a7.3,7.3,0,0,0,1.22,4l3.87,5.82a7.25,7.25,0,0,0,6,3.24h14a7.25,7.25,0,0,0,6-3.24l3.87-5.82a7.14,7.14,0,0,0,1.22-4v-8.69H85.73ZM64,91.3a39.67,39.67,0,0,0,9.87,26.23c3.74,4.27,9.6,13.19,11.83,20.71,0,.06,0,.12,0,.18H122l0-.18c2.23-7.52,8.08-16.45,11.83-20.71A39.86,39.86,0,1,0,64,91.3Zm39.87-18.12A18.14,18.14,0,0,0,85.73,91.3a3.63,3.63,0,0,1-7.25,0,25.4,25.4,0,0,1,25.37-25.37,3.63,3.63,0,1,1,0,7.25Z"/></g></g></svg>